<?xml version="1.0" encoding="UTF-8"?>
<svg xmlns="http://www.w3.org/2000/svg" viewBox="420 320 260 360">
  <defs>
    <style>
      .cls-1 { fill: #537FE7; }
    </style>
  </defs>
  <g>
    <path class="cls-1" d="M429.86,596.77c-1.8-14.98-2.87-30.05-4.59-45.07.07-75.35-.5-150.91-1.71-222.27-1.2,70.45-1.77,144.98-1.72,219.36-1.76,12.12-3.61,24.28-4.52,36.43-2.44,15.6-2.52,31.58,4.83,46.1.28,40.99.75,81.45,1.41,120.67.66-39.4,1.13-80.07,1.41-121.26,4.89-10.72,6.02-22.31,4.89-33.95Z"/>
    <path class="cls-1" d="M470.83,571.73c-1.64-38.24-4.09-79.78-6.97-118.12-.28-42.2-.75-83.87-1.44-124.19-.69,40.3-1.16,81.93-1.44,124.1-2.14,28.31-3.94,59.2-5.53,87.38-.81,18.11-1.96,43.81-3.43,61.64-1.59,30.04,2.05,60.11,9.55,89.36.24,20.28.52,40.34.85,60.08.33-19.62.61-39.55.84-59.71,2.71-9.36,5.18-18.74,6.58-28.09,2.84-20.45,4.38-41.01,2.98-61.64-.7-10.26-1.54-20.56-2-30.82Z"/>
    <path class="cls-1" d="M501.5,386.12c-.23-19.61-.51-39.01-.83-58.1-.32,18.57-.59,37.43-.82,56.48-1.52,24.89-3.24,49.77-4.44,74.67-.95,21.78-2.52,65.7-3.15,87.48-.46,14.57-1.3,29.17-2,43.74-1.4,29.21.14,58.38,3.01,87.48,1.4,13.88,4.06,27.79,6.91,41.67.15,10.42.3,20.78.48,31.04.17-10.3.33-20.7.48-31.16,5.51-28.24,8.66-56.68,10.03-85.28,1.51-29.17-1.19-58.34-2.1-87.48-1.57-51.87-4.71-108.11-7.57-160.53Z"/>
    <path class="cls-1" d="M540.57,329.42v-.04h-.1c-.03.62-.06,1.24-.09,1.86-.01-.61-.02-1.22-.03-1.83-.02,1.19-.04,2.39-.06,3.58-1.65,32.91-3.67,65.81-5.02,98.72-.95,25.49-2.52,76.87-3.15,102.33-.46,17.05-1.3,34.11-2,51.17-1.4,34.15.14,68.26,3.01,102.33,1.43,16.62,4.09,35.14,7.01,51.86.07,4.21.13,8.4.2,12.58.07-4.11.14-8.23.2-12.36,5.7-33.65,9.1-69.36,10.48-103.24,1.51-34.15-1.19-68.22-2.1-102.33-1.72-66.26-5.31-138.65-8.35-204.63Z"/>
    <path class="cls-1" d="M628.39,573.09c-1.64-38.2-4.08-79.69-6.96-117.99-.27-42.71-.75-84.88-1.45-125.68-.7,40.9-1.18,83.18-1.45,126.01-2.15,28.16-3.94,58.84-5.52,86.85-.81,18.11-1.96,43.81-3.43,61.64-1.59,30.06,2.05,60.15,9.57,89.42.23,19.79.51,39.37.83,58.65.32-19.15.6-38.62.83-58.29,2.71-9.38,5.19-18.77,6.6-28.14,2.84-20.45,4.38-41.01,2.98-61.64-.7-10.26-1.54-20.56-2-30.82Z"/>
    <path class="cls-1" d="M657.97,634.45c4.94-10.72,7.03-22.33,5.9-33.97-1.83-15.26-3.53-30.61-5.57-45.91.08-76.3-.48-152.88-1.71-225.15-1.22,71.89-1.79,148.01-1.71,223.91-1.45,11.84-2.65,23.72-3.54,35.6-2.45,15.63-3.52,31.65,3.87,46.2.28,39.69.74,78.86,1.38,116.86.64-38.21,1.1-77.61,1.39-117.53Z"/>
    <path class="cls-1" d="M580.73,377.07c-.2-16.05-.44-31.95-.71-47.64-.31,17.93-.57,36.12-.79,54.51-1.67,25.13-3.88,50.03-5.09,75.24-.95,21.78-2.52,65.7-3.15,87.48-.46,14.57-1.3,29.17-2,43.74-1.4,29.21.14,58.38,3.01,87.48,1.47,14.57,4.48,29.17,7.49,43.74h.06c.14,10.19.3,20.32.47,30.36.17-10.12.33-20.34.47-30.62,5.74-28.88,8.01-57.96,9.41-87.22,1.51-29.17-1.19-58.34-2.1-87.48-1.66-54.87-4.15-114.63-7.07-169.59Z"/>
  </g>
</svg>