<?xml version="1.0" encoding="UTF-8"?><svg id="Calque_1" xmlns="http://www.w3.org/2000/svg" viewBox="0 0 1080 1080"><defs><style>.cls-1{fill:#f6f6f6;}</style></defs><g id="Calque_1-2"><path class="cls-1" d="M424.5,507.48l-2-81.95h35.58c5.15,0,9.63.91,13.45,2.7,3.82,1.79,6.79,4.34,8.9,7.6,2.1,3.29,5.15,7.14,5.15,11.59v1.4c0,4.9-1.16,8.9-3.5,11.94s-5.22,5.25-8.65,6.69v2.1c3.12.18,5.53,1.23,7.25,3.22s2.59,4.62,2.59,7.91v26.83h-15.44v-24.58c0-1.86-.49-3.4-1.47-4.55-.98-1.16-2.59-1.75-4.87-1.75h-21.54v30.92h-15.44v-.07ZM439.98,462.51h18.49c3.68,0,6.55-.98,8.62-2.98s3.12-4.62,3.12-7.91v-1.16c0-3.29-1.02-5.92-3.05-7.91s-4.9-2.98-8.65-2.98h-18.49v22.94h-.04Z"/><path class="cls-1" d="M525.43,509.12c-5.78,0-10.86-1.23-15.27-3.68-4.41-2.45-7.84-5.92-10.3-10.44-2.45-4.48-3.68-9.77-3.68-15.86v-1.4c0-6.09,1.23-11.38,3.64-15.86,2.42-4.48,5.81-7.95,10.19-10.44,4.38-2.45,9.46-3.68,15.23-3.68s10.65,1.26,14.88,3.82c4.2,2.52,7.49,6.06,9.84,10.54s3.5,9.7,3.5,15.62v5.04h-42.27c.14,3.99,1.65,7.21,4.45,9.74,2.8,2.49,6.23,3.75,10.3,3.75s7.18-.91,9.14-2.7c1.96-1.79,3.43-3.78,4.45-5.99l12.05,6.34c-1.09,2.03-2.66,4.24-4.73,6.62s-4.83,4.41-8.26,6.09c-3.43,1.68-7.81,2.52-13.1,2.52l-.07-.04ZM511.28,471.76h27.18c-.32-3.36-1.65-6.06-4.03-8.09s-5.5-3.05-9.32-3.05-7.14,1.02-9.49,3.05c-2.35,2.03-3.78,4.73-4.34,8.09Z"/><path class="cls-1" d="M574.25,507.48v-45.91h-14.74v-12.19h14.74v-10.79c0-3.99-.81-7.14,1.57-9.53s5.5-3.57,9.32-3.57h15.23l2,12.19h-10.05c-2.17,0-3.29,1.16-3.29,3.5v8.19h15.23v12.19h-15.23v45.91h-14.78Z"/><path class="cls-1" d="M615.71,507.48v-58.06h14.53v6.55h2.1c.84-2.35,2.28-4.06,4.27-5.15s4.31-1.65,6.97-1.65h7.04v13.1h-7.25c-3.75,0-6.83.98-9.25,2.98s-3.64,5.04-3.64,9.18v33.02h-14.74l-.04.04Z"/><path class="cls-1" d="M669.43,442.62c-2.66,0-4.9-.84-6.72-2.59-1.82-1.72-4.77-3.99-4.77-6.79s.91-5.08,2.77-6.79c1.82-1.72,4.06-2.59,6.72-2.59s5.01.88,6.79,2.59c1.79,1.72,2.7,3.99,2.7,6.79s1.09,5.08-.7,6.79c-1.79,1.72-4.06,2.59-6.79,2.59ZM662.08,507.48v-58.06h14.74v58.06h-14.74Z"/><path class="cls-1" d="M690.41,478.69v-1.86c0-6.09,1.23-11.31,3.64-15.62,2.42-4.34,5.64-7.63,9.67-9.95s8.4-3.47,13.17-3.47c5.32,0,9.32.95,12.05,2.8s4.73,3.82,5.95,5.85h2.1v-7.04h14.53v68.36c0,3.99-1.16,7.14-3.5,9.53s-5.46,3.57-9.35,3.57h-38.87v-12.89h33.72c2.17,0,3.29-1.16,3.29-3.5v-15.09h-2.1c-.77,1.26-1.86,2.52-3.29,3.82-1.4,1.3-3.29,2.35-5.6,3.22-2.35.88-5.32,1.3-8.9,1.3-4.76,0-9.14-1.16-13.17-3.47-4.03-2.31-7.25-5.6-9.67-9.95-2.42-4.34-3.64-9.53-3.64-15.62h-.04ZM721.09,494.83c4.52,0,8.3-1.44,11.35-4.34,3.05-2.87,4.55-6.93,4.55-12.19v-1.16c0-5.32-1.51-9.39-4.52-12.22s-6.79-4.27-11.42-4.27-8.3,1.44-11.35,4.27c-3.05,2.84-4.55,6.93-4.55,12.22v1.16c0,5.22,1.51,9.28,4.55,12.19,3.05,2.91,6.83,4.34,11.35,4.34h.03Z"/><path class="cls-1" d="M768.96,461.46v-7.95h4.55c3.57,0,5.39-1.79,5.39-5.39v-3.75h-2c-3.12,0-5.71-.95-7.77-2.8s-5.12-4.24-5.12-7.14c0-3.12,1.05-5.67,3.12-7.6,2.07-1.96,4.66-2.94,7.77-2.94s5.81.98,7.84,2.98,3.05,4.66,3.05,8.02l2,13.45c0,8.76-4.38,13.1-13.1,13.1h-5.74v.04Z"/><path class="cls-1" d="M823.24,509.12c-3.57,0-6.76-.74-9.56-2.17s-5.04-3.54-6.69-6.34c-1.65-2.77-2.45-6.16-2.45-10.12s.81-7.32,2.45-10.02,3.92-4.73,6.83-6.09c2.91-1.37,6.27-2.03,10.02-2.03h13.69v-3.29c0-2.73-.74-4.97-2.21-6.72s-3.82-2.63-7.04-2.63-5.5.84-7.04,2.52c-1.54,1.68-2.56,3.85-3.01,6.51l-11.66-4.55c.81-2.98,2.1-5.67,3.89-8.12s4.17-4.45,7.14-5.95c2.98-1.51,6.62-2.28,10.93-2.28,6.58,0,11.77,1.93,15.62,5.74,3.82,3.82,5.74,9.35,5.74,16.63v21.68c0,2.35.95,3.5,2.8,3.5h4.03v12.19h-8.44c-2.49,0-4.52-.7-6.13-2.1s-2.42-3.29-2.42-5.6v-.11h-1.93c-.28.95-.88,2.17-1.82,3.68s-2.42,2.87-4.45,4.03-4.76,1.75-8.26,1.75l-.03-.11ZM825.45,497.18c3.57,0,6.44-1.16,8.72-3.47,2.24-2.31,3.36-5.36,3.36-9.18v-1.16h-12.78c-2.35,0-4.2.6-5.53,1.75s-2.03,2.8-2.03,4.9.7,3.82,2.1,5.15c1.4,1.33,3.47,2,6.13,2h.03Z"/><path class="cls-1" d="M874.79,442.62c-2.66,0-4.9-.84-6.72-2.59-1.82-1.72-4.77-3.99-4.77-6.79s.91-5.08,2.77-6.79c1.82-1.72,4.06-2.59,6.72-2.59s5.01.88,6.79,2.59c1.79,1.72,2.7,3.99,2.7,6.79s1.09,5.08-.7,6.79c-1.79,1.72-4.06,2.59-6.79,2.59ZM867.44,507.48v-58.06h14.74v58.06h-14.74Z"/><path class="cls-1" d="M898.57,507.48v-58.06h14.53v6.55h2.1c.84-2.35,2.28-4.06,4.27-5.15s4.31-1.65,6.97-1.65h7.04v13.1h-7.25c-3.75,0-6.83.98-9.25,2.98s-3.64,5.04-3.64,9.18v33.02h-14.74l-.04.04Z"/><path class="cls-1" d="M438.4,584.52c-3.33,0-6.27-.6-8.83-1.75-2.56-1.19-4.59-2.91-6.02-5.18s-4.17-5.08-4.17-8.37v-1.58h8.76v1.58c0,3.12.95,5.43,2.8,7,1.86,1.54,4.38,2.35,7.46,2.35s5.53-.67,7.11-2,2.38-3.05,2.38-5.15c0-1.4-.39-2.52-1.12-3.4-.77-.88-1.82-1.58-3.22-2.1s-3.05-1.02-4.97-1.47l-2.35-.56c-2.8-.67-5.25-1.51-7.35-2.49-2.07-.98-3.68-2.31-4.83-3.92-1.12-1.65-1.72-3.75-1.72-6.3s.63-4.83,1.93-6.69c1.3-1.86,3.05-3.29,5.32-4.27,2.28-1.02,4.94-1.51,8.02-1.51s5.81.53,8.23,1.58c2.42,1.05,4.31,2.59,5.71,4.66,1.4,2.07,2.07,4.66,2.07,7.74v2.28h-6.76v-2.28c0-1.89-.39-3.43-1.16-4.59-.77-1.19-1.86-2.03-3.26-2.59-1.4-.56-3.01-.81-4.87-.81-2.7,0-4.8.56-6.27,1.68-1.51,1.12-2.24,2.66-2.24,4.62,0,1.33.32,2.45.98,3.33s1.61,1.58,2.87,2.1c1.26.56,2.84,1.02,4.73,1.44l2.35.56c2.87.63,5.39,1.44,7.56,2.42s3.92,2.31,5.18,3.99c1.26,1.68,1.89,3.85,1.89,6.48s-.67,4.97-2,6.93c-1.33,1.96-3.22,3.5-5.64,4.62-2.45,1.12-5.32,1.68-8.65,1.68l.07-.04Z"/><path class="cls-1" d="M465.58,596.25v-5.67h17.34c1.19,0,1.75-.63,1.75-1.89v-9.6h-1.02c-.39.84-.95,1.65-1.75,2.42-.77.77-1.82,1.4-3.12,1.93-1.3.49-2.94.77-4.9.77-2.35,0-4.45-.53-6.3-1.58s-3.29-2.56-4.34-4.48-1.58-4.24-1.58-6.86v-18.74h6.48v18.21c0,2.7.67,4.66,2.03,5.95,1.33,1.3,3.22,1.93,5.6,1.93,2.66,0,4.8-.88,6.41-2.66s2.42-4.34,2.42-7.7v-15.76h6.48v37.44c0,1.89-.56,3.4-1.68,4.55-1.12,1.12-2.63,1.72-4.59,1.72h-19.3l.07.03Z"/><path class="cls-1" d="M513.41,584.52c-3.96,0-7.21-.88-9.84-2.66s-4.2-4.45-4.8-8.02l6.06-1.44c.35,1.72.91,3.08,1.72,4.1.81,1.02,1.79,1.72,2.98,2.14s2.49.63,3.89.63c2.07,0,3.64-.39,4.76-1.19,1.12-.81,1.68-1.82,1.68-3.08s-.53-2.17-1.58-2.77-2.59-1.09-4.66-1.44l-2.14-.39c-2.1-.39-4.03-.91-5.74-1.65s-3.08-1.72-4.1-2.98-1.51-2.87-1.51-4.87c0-2.94,1.09-5.22,3.29-6.83s5.08-2.42,8.69-2.42,6.34.81,8.62,2.35c2.24,1.58,3.71,3.71,4.38,6.41l-6.06,1.72c-.39-1.89-1.19-3.22-2.38-3.99-1.23-.77-2.73-1.16-4.55-1.16s-3.15.32-4.17.98-1.51,1.58-1.51,2.73c0,1.26.49,2.17,1.47,2.77s2.31,1.02,3.99,1.33l2.21.39c2.24.39,4.27.91,6.13,1.58,1.86.67,3.29,1.65,4.38,2.91s1.61,2.94,1.61,5.04c0,3.12-1.16,5.53-3.47,7.25-2.31,1.72-5.43,2.59-9.32,2.59l-.04-.03Z"/><path class="cls-1" d="M544.76,583.65c-1.89,0-3.4-.56-4.52-1.72-1.12-1.12-1.68-2.66-1.68-4.55v-19.37h-8.58v-5.5h8.58v-10.26h6.48v10.26h9.28v5.5h-9.28v18.21c0,1.26.6,1.89,1.75,1.89h6.48v5.5h-8.58l.07.04Z"/><path class="cls-1" d="M575.05,584.52c-3.15,0-5.92-.67-8.26-2s-4.2-3.19-5.53-5.6c-1.33-2.42-2-5.22-2-8.4v-.77c0-3.22.67-6.06,1.96-8.47,1.3-2.42,3.12-4.27,5.46-5.6s5.04-2,8.09-2,5.6.67,7.84,2c2.24,1.33,3.99,3.15,5.25,5.53,1.26,2.35,1.89,5.11,1.89,8.26v2.45h-23.88c.07,2.73.98,4.9,2.73,6.51s3.92,2.42,6.51,2.42c2.45,0,4.27-.56,5.53-1.65,1.23-1.09,2.21-2.35,2.87-3.78l5.36,2.77c-.6,1.19-1.44,2.42-2.56,3.71-1.12,1.3-2.59,2.38-4.38,3.29-1.82.88-4.13,1.33-6.93,1.33h.04ZM565.98,564.91h17.2c-.18-2.35-1.02-4.2-2.52-5.53-1.51-1.33-3.5-2-5.92-2s-4.41.67-5.95,2c-1.54,1.33-2.49,3.15-2.8,5.53Z"/><path class="cls-1" d="M597.64,583.65v-31.06h6.37v3.64h1.02c.6-1.09,1.54-2.07,2.84-2.91,1.3-.84,3.08-1.26,5.29-1.26s4.17.46,5.57,1.44c1.4.95,2.45,2.14,3.19,3.61h1.02c.7-1.44,1.75-2.63,3.12-3.61s3.29-1.44,5.85-1.44c2.03,0,3.82.42,5.36,1.23,1.54.81,2.8,2.03,3.71,3.64s1.4,3.64,1.4,6.02v20.66h-6.48v-20.17c0-1.89-.53-3.36-1.54-4.38s-2.49-1.54-4.38-1.54c-2.03,0-3.64.67-4.87,1.96-1.23,1.3-1.82,3.19-1.82,5.6v18.53h-6.48v-20.17c0-1.89-.53-3.36-1.54-4.38s-2.49-1.54-4.38-1.54c-2.03,0-3.64.67-4.87,1.96s-1.82,3.19-1.82,5.6v18.53h-6.48l-.07.04Z"/><path class="cls-1" d="M665.89,584.52c-3.15,0-5.92-.67-8.26-2s-4.2-3.19-5.53-5.6c-1.33-2.42-2-5.22-2-8.4v-.77c0-3.22.67-6.06,1.96-8.47,1.3-2.42,3.12-4.27,5.46-5.6s5.04-2,8.09-2,5.6.67,7.84,2,3.99,3.15,5.25,5.53c1.26,2.35,1.89,5.11,1.89,8.26v2.45h-23.88c.07,2.73,1.02,4.9,2.73,6.51s3.92,2.42,6.51,2.42c2.45,0,4.27-.56,5.5-1.65s2.21-2.35,2.87-3.78l5.36,2.77c-.6,1.19-1.44,2.42-2.56,3.71-1.12,1.3-2.59,2.38-4.38,3.29s-4.13,1.33-6.93,1.33h.07ZM656.82,564.91h17.2c-.18-2.35-1.02-4.2-2.52-5.53-1.51-1.33-3.5-2-5.92-2s-4.41.67-5.95,2-2.49,3.15-2.8,5.53Z"/><path class="cls-1" d="M701.19,584.52c-3.96,0-7.21-.88-9.84-2.66s-4.2-4.45-4.8-8.02l6.06-1.44c.35,1.72.91,3.08,1.72,4.1.81,1.02,1.79,1.72,2.98,2.14s2.49.63,3.89.63c2.07,0,3.64-.39,4.76-1.19,1.12-.81,1.68-1.82,1.68-3.08s-.53-2.17-1.58-2.77-2.59-1.09-4.66-1.44l-2.14-.39c-2.1-.39-4.03-.91-5.74-1.65s-3.08-1.72-4.1-2.98-1.51-2.87-1.51-4.87c0-2.94,1.09-5.22,3.29-6.83s5.08-2.42,8.69-2.42,6.34.81,8.62,2.35c2.24,1.58,3.71,3.71,4.38,6.41l-6.06,1.72c-.39-1.89-1.19-3.22-2.38-3.99-1.23-.77-2.73-1.16-4.55-1.16s-3.15.32-4.17.98c-1.02.67-1.51,1.58-1.51,2.73,0,1.26.49,2.17,1.47,2.77s2.31,1.02,3.99,1.33l2.21.39c2.24.39,4.27.91,6.13,1.58,1.86.67,3.29,1.65,4.38,2.91s1.61,2.94,1.61,5.04c0,3.12-1.16,5.53-3.47,7.25s-5.43,2.59-9.32,2.59l-.04-.03Z"/><path class="cls-1" d="M751.9,584.52c-3.15,0-5.92-.67-8.26-2s-4.2-3.19-5.53-5.6c-1.33-2.42-2-5.22-2-8.4v-.77c0-3.22.67-6.06,1.96-8.47,1.3-2.42,3.12-4.27,5.46-5.6s5.04-2,8.09-2,5.6.67,7.84,2,3.99,3.15,5.25,5.53c1.26,2.35,1.89,5.11,1.89,8.26v2.45h-23.88c.07,2.73,1.02,4.9,2.73,6.51s3.92,2.42,6.51,2.42c2.45,0,4.27-.56,5.5-1.65s2.21-2.35,2.87-3.78l5.36,2.77c-.6,1.19-1.44,2.42-2.56,3.71-1.12,1.3-2.59,2.38-4.38,3.29s-4.13,1.33-6.93,1.33h.07ZM742.8,564.91h17.2c-.18-2.35-1.02-4.2-2.52-5.53-1.51-1.33-3.5-2-5.92-2s-4.41.67-5.95,2-2.49,3.15-2.8,5.53Z"/><path class="cls-1" d="M774.46,583.65v-31.06h6.37v4.66h1.02c.6-1.26,1.65-2.45,3.15-3.54,1.51-1.09,3.75-1.65,6.76-1.65,2.35,0,4.45.53,6.27,1.58,1.82,1.05,3.26,2.52,4.31,4.45,1.05,1.93,1.58,4.2,1.58,6.9v18.67h-6.48v-18.14c0-2.7-.67-4.66-2.03-5.95s-3.19-1.93-5.53-1.93c-2.7,0-4.83.88-6.44,2.66s-2.42,4.34-2.42,7.7v15.69h-6.48l-.07-.04Z"/><path class="cls-1" d="M827.48,584.52c-3.15,0-5.92-.67-8.26-2s-4.2-3.19-5.53-5.6c-1.33-2.42-2-5.22-2-8.4v-.77c0-3.22.67-6.06,1.96-8.47,1.3-2.42,3.12-4.27,5.46-5.6s5.04-2,8.09-2,5.6.67,7.84,2,3.99,3.15,5.25,5.53c1.26,2.35,1.89,5.11,1.89,8.26v2.45h-23.88c.07,2.73,1.02,4.9,2.73,6.51s3.92,2.42,6.51,2.42c2.45,0,4.27-.56,5.5-1.65s2.21-2.35,2.87-3.78l5.36,2.77c-.6,1.19-1.44,2.42-2.56,3.71-1.12,1.3-2.59,2.38-4.38,3.29s-4.13,1.33-6.93,1.33h.07ZM818.41,564.91h17.2c-.18-2.35-1.02-4.2-2.52-5.53-1.51-1.33-3.5-2-5.92-2s-4.41.67-5.95,2-2.49,3.15-2.8,5.53Z"/><path class="cls-1" d="M850.03,583.65v-31.06h6.37v3.64h1.02c.49-1.3,1.33-2.24,2.42-2.87,1.12-.6,2.49-.91,4.13-.91h3.71v5.85h-3.96c-2.1,0-3.82.6-5.18,1.72-1.33,1.16-2.03,2.94-2.03,5.32v18.28h-6.48v.04Z"/><path class="cls-1" d="M871.78,568.27v-.95c0-3.29.67-6.06,2-8.37s3.08-4.1,5.25-5.36,4.59-1.89,7.18-1.89c3.01,0,5.36.56,6.97,1.72s2.8,2.35,3.57,3.64h1.02v-4.48h6.3v37.44c0,1.89-.56,3.4-1.68,4.55-1.12,1.12-2.63,1.72-4.55,1.72h-20.94v-5.67h18.91c1.23,0,1.82-.63,1.82-1.89v-9.91h-1.02c-.46.77-1.12,1.54-1.96,2.35-.84.81-1.96,1.44-3.33,1.96-1.37.49-3.08.77-5.15.77-2.59,0-5.01-.63-7.21-1.86s-3.96-3.01-5.25-5.36-1.96-5.11-1.96-8.33l.03-.07ZM887.99,578.15c2.8,0,5.15-.88,6.97-2.7,1.82-1.79,2.73-4.24,2.73-7.39v-.56c0-3.22-.91-5.71-2.7-7.46-1.82-1.75-4.13-2.63-7-2.63s-5.08.88-6.9,2.63-2.73,4.24-2.73,7.46v.56c0,3.15.91,5.6,2.73,7.39s4.13,2.7,6.9,2.7Z"/><path class="cls-1" d="M916.92,548.35c-1.26,0-2.31-.42-3.19-1.23s-1.3-1.89-1.3-3.19.42-2.35,1.3-3.19c.88-.81,1.93-1.23,3.19-1.23s2.38.42,3.22,1.23c.84.81,1.26,1.89,1.26,3.19s-.42,2.35-1.26,3.19-1.93,1.23-3.22,1.23ZM913.63,583.65v-31.06h6.48v31.06h-6.48Z"/><path class="cls-1" d="M944.03,584.52c-3.15,0-5.92-.67-8.26-2s-4.2-3.19-5.53-5.6c-1.33-2.42-2-5.22-2-8.4v-.77c0-3.22.67-6.06,1.96-8.47,1.3-2.42,3.12-4.27,5.46-5.6s5.04-2,8.09-2,5.6.67,7.84,2,3.99,3.15,5.25,5.53c1.26,2.35,1.89,5.11,1.89,8.26v2.45h-23.88c.07,2.73,1.02,4.9,2.73,6.51s3.92,2.42,6.51,2.42c2.45,0,4.27-.56,5.5-1.65s2.21-2.35,2.87-3.78l5.36,2.77c-.6,1.19-1.44,2.42-2.56,3.71-1.12,1.3-2.59,2.38-4.38,3.29s-4.13,1.33-6.93,1.33h.07ZM934.96,564.91h17.2c-.18-2.35-1.02-4.2-2.52-5.53-1.51-1.33-3.5-2-5.92-2s-4.41.67-5.95,2-2.49,3.15-2.8,5.53Z"/><path class="cls-1" d="M979.33,584.52c-3.96,0-7.21-.88-9.84-2.66s-4.2-4.45-4.8-8.02l6.06-1.44c.35,1.72.91,3.08,1.72,4.1.81,1.02,1.79,1.72,2.98,2.14s2.49.63,3.89.63c2.07,0,3.64-.39,4.76-1.19,1.12-.81,1.68-1.82,1.68-3.08s-.53-2.17-1.58-2.77-2.59-1.09-4.66-1.44l-2.14-.39c-2.1-.39-4.03-.91-5.74-1.65s-3.08-1.72-4.1-2.98-1.51-2.87-1.51-4.87c0-2.94,1.09-5.22,3.29-6.83s5.08-2.42,8.69-2.42,6.34.81,8.62,2.35c2.24,1.58,3.71,3.71,4.38,6.41l-6.06,1.72c-.39-1.89-1.19-3.22-2.38-3.99-1.23-.77-2.73-1.16-4.55-1.16s-3.15.32-4.17.98c-1.02.67-1.51,1.58-1.51,2.73,0,1.26.49,2.17,1.47,2.77s2.31,1.02,3.99,1.33l2.21.39c2.24.39,4.27.91,6.13,1.58,1.86.67,3.29,1.65,4.38,2.91s1.61,2.94,1.61,5.04c0,3.12-1.16,5.53-3.47,7.25s-5.43,2.59-9.32,2.59l-.04-.03Z"/><path class="cls-1" d="M146.92,303.16c2.31,135.77,2.28,286.71,0,422.56-2.28-135.88-2.31-286.78,0-422.56h0Z"/><path class="cls-1" d="M146.99,512.69c2.84,19.23,3.92,38.59,6.23,57.82,1.16,11.91-.05,23.78-5.23,34.71h-2.4c-7.42-14.57-7.35-30.61-4.9-46.26,1.16-15.44,3.84-30.89,5.9-46.26h.4Z"/><path class="cls-1" d="M185.79,303.16c2.31,135.77,2.28,286.71,0,422.56-2.28-135.88-2.31-286.78,0-422.56h0Z"/><path class="cls-1" d="M186.84,422.2c3.05,39.75,5.64,83.31,7.35,123.27.46,10.26,1.3,20.56,2,30.82,1.4,20.63-.14,41.18-2.98,61.64-1.54,10.26-4.36,20.56-7.37,30.82h-.1c-8.05-30.22-12-61.36-10.35-92.45,1.47-17.83,2.63-43.53,3.43-61.64,1.68-29.87,3.61-62.79,5.92-92.45h2.1Z"/><path class="cls-1" d="M224.03,301.76c2.31,135.77,2.28,286.71,0,422.56-2.28-135.88-2.31-286.78,0-422.56h0Z"/><path class="cls-1" d="M224.09,345.43c3.05,56.42,6.64,118.3,8.35,174.96.91,29.14,3.61,58.31,2.1,87.48-1.4,29.35-4.68,58.52-10.46,87.48h-.1c-3.01-14.57-5.87-29.17-7.34-43.74-2.87-29.1-4.41-58.27-3.01-87.48.7-14.57,1.54-29.17,2-43.74.63-21.78,2.21-65.7,3.15-87.48,1.4-29.17,3.52-58.31,5.2-87.48,0,0,.1,0,.1,0Z"/><path class="cls-1" d="M263.71,303.16c2.31,135.77,2.28,286.71,0,422.56-2.28-135.88-2.31-286.78,0-422.56h0Z"/><path class="cls-1" d="M263.94,303.16c3.05,65.98,6.64,138.37,8.35,204.63.91,34.11,3.61,68.19,2.1,102.33-1.4,34.25-4.85,70.37-10.66,104.34h0c-3.01-17.06-5.77-36.12-7.24-53.18-2.87-34.08-4.41-68.19-3.01-102.33.7-17.06,1.54-34.11,2-51.17.63-25.46,2.21-76.84,3.15-102.33,1.4-34.11,3.52-68.22,5.2-102.33h.1v.04Z"/><path class="cls-1" d="M343.35,303.16c2.31,135.77,2.28,286.71,0,422.56-2.28-135.88-2.31-286.78,0-422.56h0Z"/><path class="cls-1" d="M344.4,423.56c3.05,39.75,5.64,83.31,7.35,123.27.46,10.26,1.3,20.56,2,30.82,1.4,20.63-.14,41.18-2.98,61.64-1.54,10.26-4.36,20.56-7.37,30.82h-.1c-8.05-30.22-12-61.36-10.35-92.45,1.47-17.83,2.63-43.53,3.43-61.64,1.68-29.87,3.61-62.79,5.95-92.45h2.1-.04Z"/><path class="cls-1" d="M379.95,303.16c2.31,135.77,2.28,286.71,0,422.56-2.28-135.88-2.31-286.78,0-422.56h0Z"/><path class="cls-1" d="M380,516.4c2.84,19.23,4.92,38.59,7.23,57.82,1.16,11.91-1.05,23.78-6.23,34.71h-2.4c-7.42-14.57-6.35-30.61-3.9-46.26,1.16-15.44,2.84-30.89,4.9-46.26h1.4s-1,0-1,0Z"/><path class="cls-1" d="M303.39,303.16c2.31,135.77,2.28,286.71,0,422.56-2.28-135.88-2.31-286.78,0-422.56h0Z"/><path class="cls-1" d="M303.81,345.43c3.05,56.42,5.64,118.3,7.35,174.96.91,29.14,3.61,58.31,2.1,87.48-1.4,29.35-3.68,58.52-9.46,87.48h-.95c-3.01-14.57-6.02-29.17-7.49-43.74-2.87-29.1-4.41-58.27-3.01-87.48.7-14.57,1.54-29.17,2-43.74.63-21.78,2.21-65.7,3.15-87.48,1.4-29.17,4.15-57.94,5.83-87.11,0,0,.47-.37.47-.37Z"/></g></svg>